<?xml version="1.0" encoding="UTF-8"?>
<!DOCTYPE svg PUBLIC "-//W3C//DTD SVG 1.1//EN" "http://www.w3.org/Graphics/SVG/1.1/DTD/svg11.dtd">
<!-- Creator: CorelDRAW X6 -->
<svg xmlns="http://www.w3.org/2000/svg" xml:space="preserve" width="127.865mm" height="23.0291mm" version="1.1" style="shape-rendering:geometricPrecision; text-rendering:geometricPrecision; image-rendering:optimizeQuality; fill-rule:evenodd; clip-rule:evenodd"
viewBox="0 0 12129 2184"
 xmlns:xlink="http://www.w3.org/1999/xlink">
 <defs>
  <style type="text/css">
   <![CDATA[
    .fil0 {fill:#005288;fill-rule:nonzero}
   ]]>
  </style>
 </defs>
 <g id="Layer_x0020_1">
  <metadata id="CorelCorpID_0Corel-Layer"/>
  <path class="fil0" d="M10743 2131l-66 0 79 -595 99 0c27,182 84,320 172,416 88,96 203,144 345,144 131,0 243,-42 334,-127 92,-85 138,-187 138,-308 0,-72 -21,-139 -62,-200 -41,-61 -99,-111 -172,-148l-263 -135c-176,-90 -292,-174 -347,-253 -55,-79 -82,-184 -82,-312 0,-182 54,-330 163,-443 109,-114 250,-171 426,-171 91,0 171,15 240,43 69,29 131,74 186,135l152 -143 44 0 -84 560 -81 0c-21,-162 -70,-287 -146,-375 -76,-88 -174,-132 -293,-132 -120,0 -220,33 -299,99 -80,66 -119,147 -119,243 0,59 15,108 45,148 30,39 94,83 191,131l290 147c143,71 247,156 313,255 66,99 100,218 100,359 0,214 -65,387 -194,518 -129,132 -300,198 -513,198 -89,0 -169,-16 -241,-49 -71,-33 -131,-79 -179,-139l-175 134z"/>
  <path class="fil0" d="M9063 2131l-573 0 0 -78 173 0 1309 -2053 110 0 40 2053 281 0 0 78 -941 0 0 -78 281 0 -9 -560 -610 0 -364 560 305 0 0 78zm669 -723l-18 -842 -541 842 559 0z"/>
  <path class="fil0" d="M7884 2131l-845 0 0 -78 197 0 373 -1928 -260 0 0 -78 917 0c223,0 392,43 506,128 115,85 172,211 172,377 0,119 -27,223 -79,310 -53,88 -131,158 -236,210 -74,37 -159,63 -253,79 -94,16 -249,23 -464,23l-119 0 -173 879 263 0 0 78zm-69 -1048l153 0c119,0 206,-7 258,-22 53,-15 98,-40 133,-76 56,-52 100,-122 131,-210 32,-88 47,-184 47,-286 0,-135 -32,-228 -96,-283 -64,-54 -179,-81 -345,-81l-102 0 -179 958z"/>
  <polygon class="fil0" points="4999,2131 4382,2131 4382,2053 4638,2053 5017,125 4757,125 4757,44 5515,44 5659,1415 5686,1415 6373,44 7105,44 7105,125 6817,125 6439,2053 6707,2053 6707,2131 5781,2131 5781,2053 6050,2053 6409,214 6375,214 5424,2131 5330,2131 5130,211 5098,211 4733,2053 4999,2053 "/>
  <path class="fil0" d="M2307 1343c0,-147 29,-292 86,-437 57,-145 141,-285 252,-420 129,-161 269,-282 417,-364 149,-81 305,-122 469,-122 222,0 405,79 549,238 144,159 216,360 216,604 0,140 -29,284 -86,430 -57,146 -140,286 -249,421 -130,162 -271,284 -420,366 -150,82 -308,123 -474,123 -220,0 -402,-79 -546,-238 -143,-159 -215,-359 -215,-600zm1180 -1264c-124,0 -231,42 -321,127 -90,84 -170,218 -239,399 -59,161 -106,332 -141,513 -35,182 -53,346 -53,494 0,167 31,291 94,371 63,80 159,120 288,120 124,0 232,-43 323,-128 92,-86 171,-217 237,-394 58,-157 104,-327 139,-510 35,-183 52,-349 52,-499 0,-168 -31,-292 -92,-373 -62,-80 -157,-120 -286,-120z"/>
  <polygon class="fil0" points="951,2131 0,2131 0,2053 294,2053 670,125 410,125 410,44 1359,44 1359,125 1061,125 688,2053 951,2053 "/>
  <polygon class="fil0" points="2232,2131 1230,2131 1230,2053 1521,2053 908,1042 1906,125 1590,125 1590,44 2310,44 2310,125 2050,125 1227,886 1957,2053 2232,2053 "/>
 </g>
</svg>
